#tb 0: 1/25
#media_type 0: video
#codec_id 0: rawvideo
#dimensions 0: 352x288
#sar 0: 0/1
0,          0,          0,        1,   102400, 0xb2e4f091
0,          1,          1,        1,   102400, 0xd288d452
0,          2,          2,        1,   102400, 0x237b7995
0,          3,          3,        1,   102400, 0xfe817f1a
0,          4,          4,        1,   102400, 0xca619eb0
